<?xml version="1.0" encoding="utf-8"?><!DOCTYPE svg PUBLIC "-//W3C//DTD SVG 1.1//EN" "http://www.w3.org/Graphics/SVG/1.1/DTD/svg11.dtd"><svg version="1.1" xmlns="http://www.w3.org/2000/svg" xmlns:xlink="http://www.w3.org/1999/xlink" viewBox="0 0 125 73" preserveAspectRatio="none" xml:space="preserve"><path fill="#CCD138" d="M87.855,34.994l11.559-7.095l-3.076,13.578l12.758-4.495l-5.511,12.512l-0.009,0.017l13.355-1.609l-8.05,11.043l13.399,1.308l-10.12,8.808l12.838,3.938H0l12.845-3.938L2.732,59.954l13.393-1.161L8.078,47.824l13.357,1.646l-5.627-12.468l12.738,4.426l-2.968-13.395l11.557,7.018l-0.088-13.733l9.978,9.333v-0.007l2.528-13.467l7.679,11.23l5.265-12.629l5.321,12.606l7.756-11.217l2.32,11.929l10.795-8.177L87.855,34.994z"/><path fill="#010101" d="M94.562,1.428l-9.881-0.757L86.753,14.5c-4.121,2.662-9.303,5.488-14.362,8.08c-0.08,0.038-0.152,0.084-0.229,0.123c0.03-0.149,0.047-0.285,0.047-0.4c-0.031-0.515-0.214-0.873-0.458-1.361c-0.122-0.231-0.268-0.454-0.457-0.654c-0.184-0.192-0.423-0.439-0.91-0.461l-0.113,0.016c0.477-1.208,0.752-2.515,0.752-3.892c0-2.003-0.562-3.865-1.521-5.441c2.468-1.847,3.67-4.039,3.182-5.069c-0.022-0.004-1.977-0.554-4.099-0.777c-1.129-0.685-3.192-3.627-7.084-3.631c-4.762,0.054-11.347,3.723-13.955,8.046c-0.919,1.554-1.37,3.369-1.374,4.973c0.002,0.904,0.142,1.484,0.468,2.199c0.663,1.639,1.882,2.75,4.194,2.75h0.182c0.084,0,0.168,0.246,0.25,0.242c0.638,1.785,1.737,3.479,3.151,4.647l-0.093,0.27c-0.18,0.51-0.671,0.75-0.773,1.723c0,0.435,0.229,0.833,0.505,1.114c0.103,0.05,0.53,1.043,0.835,1.893l0.052,0.126c-1.771,0.817-3.647,1.188-5.388,1.188c-2.267,0.008-4.287-0.631-5.451-1.562c-0.619-0.499-1.337-0.707-2.002-0.7c-1.048,0.004-1.967,0.443-2.688,0.931c-0.907,0.609-1.867,1.183-2.642,1.752c-0.733,0.599-1.446,1.047-1.533,2.098c0,0.102,0.011,0.218,0.044,0.34c0.369,1.173,1.609,2.207,3.267,3.215c1.652,0.946,3.711,1.849,5.69,1.849h0.046c1.608,0,3.053-0.26,4.379-0.503c-1.503,2.022-2.885,4.369-4.091,7.261c-0.504-0.203-1.026-0.43-1.556-0.639c-1.418-0.553-2.862-1.134-4.003-1.545c-0.572-0.212-1.063-0.611-1.452-0.739c-0.416-0.122-0.578-0.461-0.939-0.461h-0.409l-0.226,0.569c-0.406,0.646-0.743,1.585-1.021,2.542l-3.219-0.646l-0.222,0.675c-0.761,2.204-1.049,4.902-1.049,7.712c0.008,6.134,1.388,12.832,2.845,16.203l0.058,0.133l0.1,0.106c0.316,0.272,0.437,0.25,0.628,0.313c1.232,0.283,4.854,0.414,8.342,0.513c2.716,0.069,5.264,0.104,6.23,0.117c1.553,1.829,2.842,3,4.353,3.257c-0.003,0.008,22.526,0.004,22.526,0.004c0.907-6.749,2.221-20.441,2.221-34.867c0-1.952-0.221-3.484-0.604-4.838c-0.625-3.203,5.504-7.072,10.809-10.645l0.068,0.489l-1.443,18.898l13.822-0.858l12.25,0.994l1.297-19.638l-1.352-21.982l-9.624,0.984L94.562,1.428z M72.436,6.178c0.014,0.008,0.041,0.016,0.041,0.016h-0.051L72.436,6.178z"/><path fill="#FFFFFF" d="M52.195,64.746c-2.118-5.656-1.891-7.034-1.891-8.188c0-2.146,1.312-4.935,3.591-7.856l11.153-0.97c-0.464,2.918-1.786,11.564-1.786,16.809c0.008,1.061,0.047,1.968,0.184,2.725l-10.012,0.64c-0.393-0.962-0.733-1.826-1.035-2.615L52.195,64.746z"/><path fill="#FFFFFF" d="M41.797,68.046c-1.848-0.055-3.705-0.126-5.133-0.223c-0.712-0.047-1.313-0.1-1.737-0.149l-0.344-0.058c-1.29-3.157-2.589-9.567-2.583-15.253c0-2.409,0.231-4.689,0.758-6.53l10.587,2.314c-0.553,1.68-1.064,3.484-1.513,5.457c-0.744,3.269-0.563,5.834,1.942,9.677l0.966,1.392c0.179,0.247,0.359,0.493,0.56,0.743c0.688,0.896,1.392,1.839,2.104,2.75C46.002,68.138,43.914,68.104,41.797,68.046z"/><path fill="#FFFFFF" d="M111.271,40.506l-10.84-0.877l-12.173,0.756l1.328-17.289L86.475,2.362l9.992,0.77l6.729-0.058l8.015-0.814l1.244,20.267L111.271,40.506z"/><path fill="#FFFFFF" d="M69.827,17.103c0.026,0.455-0.634,1.335-1.673,1.512c-0.357,0.073-0.715,0.108-1.053,0.108c-1.069-0.043-1.642-0.296-1.646-1.112c0.006-1.935,1.236-3.173,2.363-3.173c0.113,0,0.222,0.012,0.326,0.03C69.094,14.646,69.827,15.797,69.827,17.103z"/><path fill="#FFFFFF" d="M44.249,36.352h-0.014c-1.563,0.008-3.457-0.676-4.945-1.542c-1.361-0.72-2.396-1.796-2.522-2.081c0.103-0.385,1.841-1.511,3.479-2.562c0.569-0.389,1.267-0.684,1.853-0.677c0.381,0,0.716,0.101,1.07,0.373c1.553,1.228,3.851,1.889,6.383,1.897c1.947-0.004,4.046-0.421,6.034-1.341c0.043,0.066,0.082,0.128,0.136,0.19c0.05,0.057,0.123,0.136,0.214,0.204c-1.983,1.23-3.896,2.769-5.67,4.744c-1.678,0.467-3.636,0.769-5.953,0.797l-0.037-0.004"/><path fill="#FFFFFF" d="M51.012,17.973c-1.941-0.081-2.228-0.588-3-2.116c-0.202-0.438-0.328-1.072-0.328-1.804c0-1.307,0.396-2.891,1.153-4.177c2.12-3.699,8.646-7.346,12.656-7.287c3.257-0.004,4.748,2.468,6.502,3.511l0.103,0.062c-3.361,1.158-6.157,3.485-8.6,5.731C56.099,15.089,53.206,18.058,51.012,17.973z"/><path fill="#FFFFFF" d="M70.088,23.142c-0.689,0.69-2.131,1.808-4.972,3.477c-0.255,0.15-0.503,0.293-0.746,0.426c-1.81,0.604-3.637,1.282-5.438,2.139c-1.046,0.234-1.779,0.281-2.139,0.288c-0.143-0.272-0.396-0.885-0.609-1.474c-0.319-0.783-0.559-1.532-1.051-2.082l-0.027-0.031c0.068-0.116,0.225-0.324,0.389-0.612c1.49-0.222,7.088-1.177,14.774-3.815c0.084,0.115,0.186,0.292,0.258,0.46c0.062,0.125,0.109,0.244,0.131,0.328l0.023,0.078C70.678,22.372,70.67,22.526,70.088,23.142z"/><path fill="#FFFFFF" d="M66.927,63.089c-0.267,1.346-0.626,2.465-1.052,3.17c-0.322,0.52-0.607,0.776-0.896,0.885c-0.119-0.582-0.205-1.508-0.196-2.604c-0.009-6.102,1.932-17.521,1.932-17.538l0.168-0.995l-11.567,1.012c0.097-0.108,0.188-0.213,0.289-0.315l11.71-2.004c0.109,1.532,0.322,4.976,0.322,8.745C67.637,56.782,67.464,60.39,66.927,63.089z"/><path fill="#FFFFFF" d="M36.986,43.62c1.018,0.319,3.488,1.26,5.756,2.154l1.266,0.49c-0.054,0.137-0.104,0.267-0.153,0.405l-7.4-1.624C36.617,44.494,36.792,44.004,36.986,43.62z"/><path fill="#010101" d="M91.764,32.388h7.657v0.776h-7.657V32.388z"/><path fill="#010101" d="M91.09,12.924h7.659v0.777H91.09V12.924z"/><path fill="#010101" d="M101.691,16.189h7.654v0.78h-7.654V16.189z"/><path fill="#010101" d="M101.064,9.712h7.656v0.777h-7.656V9.712z"/><path fill="#010101" d="M101.484,32.41h7.664v0.773h-7.664V32.41z"/><path fill="#010101" d="M101.379,12.955h7.662v0.777h-7.662V12.955z"/><path fill="#010101" d="M101.25,35.652h7.654v0.775h-7.654V35.652z"/><path fill="#010101" d="M101.723,29.155h7.655v0.774h-7.655V29.155z"/><path fill="#010101" d="M102.193,22.669h7.658v0.776h-7.658V22.669z"/><path fill="#010101" d="M101.959,25.91h7.654v0.781h-7.654V25.91z"/><path fill="#010101" d="M89.984,6.475h7.654v0.772h-7.654V6.475z"/><path fill="#010101" d="M102.004,19.427h7.665v0.78h-7.665V19.427z"/><path fill="#010101" d="M92.195,19.37h7.654v0.78h-7.654V19.37z"/><path fill="#010101" d="M90.533,9.701h7.654v0.776h-7.654V9.701z"/><path fill="#010101" d="M91.648,16.146h7.648v0.777h-7.648V16.146z"/><path fill="#010101" d="M91.495,35.652h7.653v0.775h-7.653V35.652z"/><path fill="#010101" d="M92.579,22.602h7.655v0.777h-7.655V22.602z"/><path fill="#010101" d="M92.312,25.864h7.646v0.776h-7.646V25.864z"/><path fill="#010101" d="M92.036,29.123h7.659v0.781h-7.659V29.123L92.036,29.123z"/><path fill="#010101" d="M61.148,56.451l-0.756-0.058l0.407-5.393l0.758,0.055L61.148,56.451z"/><path fill="#010101" d="M58.263,56.585l-0.758-0.061l0.438-5.444l0.756,0.062L58.263,56.585z"/><path fill="#010101" d="M55.391,56.728l-0.76-0.062l0.436-5.501l0.76,0.059L55.391,56.728z"/><path fill="#010101" d="M52.505,56.856l-0.759-0.06l0.468-5.546l0.759,0.062L52.505,56.856z"/><path fill="#010101" d="M40.819,50.495l0.756,0.075l-0.558,5.745l-0.759-0.072L40.819,50.495z"/><path fill="#010101" d="M37.967,50.142l0.759,0.072l-0.572,5.797l-0.756-0.076L37.967,50.142z"/><path fill="#010101" d="M35.108,49.771l0.759,0.078l-0.562,5.847l-0.756-0.075L35.108,49.771z"/><path fill="#010101" d="M60.033,59.427l0.48,5.532l0.754-0.069l-0.477-5.523L60.033,59.427z"/><path fill="#010101" d="M57.755,65.073l-0.534-5.562l0.759-0.07l0.532,5.563L57.755,65.073z"/><path fill="#010101" d="M55.011,65.188l-0.59-5.596l0.754-0.082l0.593,5.603L55.011,65.188z"/><path fill="#010101" d="M40.422,58.958l0.87,5.777l0.753-0.115l-0.87-5.775L40.422,58.958z"/><path fill="#010101" d="M37.633,58.601l0.926,5.814l0.752-0.127l-0.927-5.809L37.633,58.601z"/><path fill="#010101" d="M35.828,64.095l-0.986-5.854l0.748-0.127l0.985,5.854L35.828,64.095z"/><path fill="#010101" d="M52.195,64.746l0.203,0.542l0.612-0.07l-0.647-5.633l-0.752,0.094L52.195,64.746z"/><path fill="#010101" d="M100.746,6.475v0.772h7.661V6.475H100.746z"/><path fill="#010101" d="M103.004,1.536c-0.464-1.115-1.839-1.539-4.04-1.539c-2.104,0-3.794,0.608-4.399,1.431l1.908,1.708c1.465,1.077,3.115,2.704,4.273,3.526l2.121-0.188c0.266-0.643,0.32-1.758,0.326-3.401L103.004,1.536z"/><path fill="#010101" d="M43.771,63.276l0.254,1.779l0.754-0.113l-0.041-0.271L43.771,63.276z"/></svg>